<svg xmlns="http://www.w3.org/2000/svg" width="200.507" height="51"><filter id="firecrawl_invert"><feColorMatrix in="SourceGraphic" type="matrix" values="-1 0 0 0 1 0 -1 0 0 1 0 0 -1 0 1 0 0 0 1 0"/><feColorMatrix type="hueRotate" values="180"/></filter><g filter="url(#firecrawl_invert)"><g fill="#fff" data-name="Logo-/-Nav-"><path d="M62.596 28.805v7.606H58.73V28.68a4.658 4.658 0 00-.5-2.494 1.851 1.851 0 00-1.621-.748 2.654 2.654 0 00-2 .873 3.213 3.213 0 00-.873 2.494v7.606h-3.982V22.32h3.866v1.621a4.733 4.733 0 013.616-1.87 4.1 4.1 0 012.369.748 4.658 4.658 0 011.621 1.871 5.444 5.444 0 012.12-2 5.682 5.682 0 012.743-.748 5.46 5.46 0 013.99 1.5 5.672 5.672 0 011.5 4.24v8.479h-3.866v-7.482c0-2.119-.748-3.242-2.369-3.242a2.479 2.479 0 00-2 .873 3.508 3.508 0 00-.748 2.494zm11.6-8.23a2.065 2.065 0 01-.624-1.621 2.368 2.368 0 01.624-1.621 2.063 2.063 0 011.621-.624 2.624 2.624 0 011.621.624 2.063 2.063 0 01.624 1.621 2.368 2.368 0 01-.624 1.621 2.064 2.064 0 01-1.621.623 2.368 2.368 0 01-1.621-.623zm32.919 1.746h-3.492v7.608a3.216 3.216 0 01-.873 2.494 2.656 2.656 0 01-2 .873c-1.621 0-2.369-1.122-2.369-3.242v-7.606h-3.866v8.481a5.482 5.482 0 001.5 4.239 5.363 5.363 0 003.866 1.5 4.544 4.544 0 003.741-2.12v1.871h3.866v-11.23h2.12v6.484a4.989 4.989 0 001.371 3.616 4.606 4.606 0 003.367 1.372 5.594 5.594 0 003.866-1.621l-1.5-2.743a2.369 2.369 0 01-1.871 1 1.134 1.134 0 01-1-.5 1.862 1.862 0 01-.374-1.247v-6.235h3.367v-2.868h-3.367v-4.239h-3.865v4.239h-2.494zm-33.294 0h3.866v14.091h-3.866V22.32zm9.851 6.235v7.856h-3.868V22.32h3.866v1.621a5.132 5.132 0 013.99-1.746 4.331 4.331 0 013.616 1.621 5.762 5.762 0 011.5 4.115v8.479H88.91v-7.981c0-2.119-.748-3.242-2.369-3.242a2.481 2.481 0 00-2 .873 3.048 3.048 0 00-.873 2.494zm48.755.748a7.062 7.062 0 01-2.119 5.113 7.53 7.53 0 01-10.475 0 7.226 7.226 0 010-10.225 7.53 7.53 0 0110.475 0 7.062 7.062 0 012.119 5.112zm-10.848 0a3.882 3.882 0 001 2.743 3.332 3.332 0 004.988 0 4.108 4.108 0 001-2.743 4.447 4.447 0 00-1-2.868 3.332 3.332 0 00-4.988 0 4.447 4.447 0 00-1 2.868zm21.946 2.619a4.27 4.27 0 01-1.5 3.367 5.554 5.554 0 01-3.866 1.247 15.813 15.813 0 01-3.242-.5 8.717 8.717 0 01-2.992-1.621l1.746-2.494a7.608 7.608 0 004.613 1.746 3.685 3.685 0 001.247-.249c.249-.249.5-.5.5-.748a1.291 1.291 0 00-.624-.873 8.03 8.03 0 00-1.746-.748c-.748-.249-1.372-.5-1.746-.624a5.071 5.071 0 01-1.372-.748 3.357 3.357 0 01-1.621-2.993 3.784 3.784 0 011.5-3.117 5.89 5.89 0 013.991-1.247 8.4 8.4 0 014.863 1.621l-1.5 2.619a6.046 6.046 0 00-3.616-1.247c-1.247 0-1.746.374-1.746 1 0 .374.249.623.623.873a7.112 7.112 0 001.871.748c.873.249 1.5.5 1.87.623a5.071 5.071 0 011.372.748c.873.249 1.372 1.247 1.372 2.619zM145.392 35.912a2.064 2.064 0 01-.623-1.621 2.367 2.367 0 01.623-1.621 2.065 2.065 0 011.621-.624 2.623 2.623 0 011.621.624 2.063 2.063 0 01.624 1.621 2.368 2.368 0 01-.624 1.621 2.063 2.063 0 01-1.621.623 2.154 2.154 0 01-1.621-.623M156.989 33.044a4.32 4.32 0 003.492-2l2.244 2.618a8.017 8.017 0 01-5.861 2.868 7.048 7.048 0 01-5.237-2 6.691 6.691 0 01-2.119-5.237 7.032 7.032 0 017.232-7.232 8.562 8.562 0 012.993.623 7.692 7.692 0 012.743 1.87l-1.995 2.627a5.147 5.147 0 00-1.621-1.247 5.222 5.222 0 00-1.871-.5 4.025 4.025 0 00-2.618 1 3.481 3.481 0 00-1.12 2.747 3.312 3.312 0 001.122 2.743 3.171 3.171 0 002.618 1.122"/><path d="M177.441 29.303a7.063 7.063 0 01-2.12 5.113 7.53 7.53 0 01-10.475 0 7.226 7.226 0 010-10.225 7.53 7.53 0 0110.475 0 7.062 7.062 0 012.12 5.112zm-10.724 0a3.883 3.883 0 001 2.743 3.332 3.332 0 004.988 0 4.108 4.108 0 001-2.743 4.447 4.447 0 00-1-2.868 3.332 3.332 0 00-4.988 0 3.858 3.858 0 00-1 2.868zM191.405 28.804v7.606h-3.866v-7.731a4.663 4.663 0 00-.5-2.494 1.852 1.852 0 00-1.621-.748 2.654 2.654 0 00-2 .873 3.215 3.215 0 00-.873 2.494v7.606h-3.866V22.32h3.866v1.621a4.733 4.733 0 013.616-1.87 4.1 4.1 0 012.369.748 4.658 4.658 0 011.621 1.871 5.444 5.444 0 012.12-2 5.682 5.682 0 012.743-.748 5.46 5.46 0 013.99 1.5 5.672 5.672 0 011.5 4.24v8.479h-3.866v-7.482c0-2.119-.748-3.242-2.369-3.242a2.479 2.479 0 00-2 .873 3.048 3.048 0 00-.873 2.494M22.444 21.448a5.033 5.033 0 00-2-2.244 6.713 6.713 0 00-3.242-1.122 6.248 6.248 0 00-4.738 1.247 5.358 5.358 0 00-2.245 4.239 5.819 5.819 0 001.247 4.613 5.541 5.541 0 003.99 2.12 6.138 6.138 0 003.616-.748 5.688 5.688 0 01-1.5 2.993 3.1 3.1 0 01-2.743.873 2.613 2.613 0 01-1.372-.5l-2.369 2.743a6.743 6.743 0 001.372.748 7.374 7.374 0 002.369.623 7.076 7.076 0 005.362-1.621 9.741 9.741 0 002-2.743 18.491 18.491 0 001.122-4.364 14.138 14.138 0 00-.873-6.858zm-4.114 4.863a3.013 3.013 0 01-2.12.5 2.293 2.293 0 01-1.746-1 3.656 3.656 0 01-.5-2 2.612 2.612 0 01.873-1.746 2.24 2.24 0 012-.5 2.791 2.791 0 011.871 1 2.934 2.934 0 01.623 2 3.09 3.09 0 01-1 1.746zM36.286 21.448a5.033 5.033 0 00-2-2.244 6.712 6.712 0 00-3.242-1.122 6.249 6.249 0 00-4.738 1.247 5.358 5.358 0 00-2.244 4.239 5.817 5.817 0 001.247 4.613 5.54 5.54 0 003.99 2.12 6.138 6.138 0 003.616-.748 5.688 5.688 0 01-1.5 2.993 3.1 3.1 0 01-2.743.873 2.614 2.614 0 01-1.372-.5l-2.369 2.743a6.774 6.774 0 001.372.748 7.377 7.377 0 002.369.623 7.076 7.076 0 005.362-1.621 9.752 9.752 0 001.995-2.743 18.489 18.489 0 001.122-4.364 12.8 12.8 0 00-.873-6.858zm-4.115 4.863a3.011 3.011 0 01-2.119.5 2.3 2.3 0 01-1.746-1 3.661 3.661 0 01-.5-2 2.615 2.615 0 01.873-1.746 2.24 2.24 0 012-.5 2.79 2.79 0 011.87 1 2.934 2.934 0 01.624 2 3.09 3.09 0 01-1 1.746z"/><path d="M46.635 15.462l3.866-3.866s-2.494-6.359-11.472-11.6l-3.866 3.866 4.489 4.489-1 1A23.438 23.438 0 00-.003 27.307 23.443 23.443 0 1041.271 11.97l1-1zm-4.863 11.472a18.393 18.393 0 11-18.33-18.58 18.519 18.519 0 0118.33 18.58z"/></g></g></svg>